<svg xmlns="http://www.w3.org/2000/svg" width="913" height="888" viewBox="0 0 913 888">
  <g fill="#917343" fill-rule="evenodd" stroke="none">
    <path d="M 653,729 645,728 644,727 637,727 636,728 632,728 622,733 608,746 602,757 600,765 600,770 599,771 599,782 601,790 604,797 608,802 616,808 622,810 639,810 659,802 663,798 667,797 678,787 684,777 684,762 680,755 680,753 676,747 663,734 659,733 Z M 177,686 174,687 173,698 167,704 169,734 172,739 178,739 180,737 184,737 188,731 188,728 190,724 185,704 180,696 180,693 Z M 676,664 676,666 673,671 673,680 676,685 677,690 685,704 703,723 706,724 710,728 718,731 727,737 730,737 734,740 739,741 742,743 747,743 750,745 756,745 757,746 765,745 773,739 777,733 777,730 779,726 777,716 775,714 775,711 771,703 763,693 748,678 730,667 706,658 688,657 681,659 Z M 686,676 693,670 702,670 725,678 734,684 736,684 748,693 762,709 765,718 764,728 757,734 744,734 726,727 707,714 694,700 692,695 688,690 688,687 686,685 Z M 208,556 205,559 205,564 207,569 210,572 212,572 213,571 213,562 211,558 Z M 838,393 820,393 818,395 818,401 816,408 816,416 814,423 814,430 812,434 812,440 810,442 808,453 806,456 806,461 804,463 805,464 808,464 818,454 826,443 834,428 834,425 838,418 838,414 840,409 840,403 842,398 841,395 Z M 675,394 673,397 673,400 676,408 677,417 680,424 682,426 682,429 685,436 690,444 694,448 697,454 706,462 711,463 710,457 708,454 708,450 704,442 704,437 700,422 700,413 698,406 698,396 697,394 692,392 684,392 683,393 Z M 32,275 28,283 28,294 27,295 27,408 28,409 27,413 28,414 28,424 31,431 39,438 47,441 50,445 50,844 51,845 51,852 53,855 53,858 62,871 72,877 86,881 838,881 851,877 863,869 869,862 872,856 874,848 874,672 875,671 875,633 874,632 875,630 874,626 874,621 875,620 874,616 874,526 875,525 875,490 874,489 874,472 875,471 875,467 874,466 874,452 875,449 874,447 875,443 877,441 882,440 890,436 895,430 897,424 897,284 895,279 889,272 887,272 881,268 875,268 874,267 520,267 519,266 517,267 358,267 357,266 356,267 275,267 274,268 273,267 52,267 51,268 43,268 Z M 549,802 547,806 543,809 529,808 526,806 522,806 520,804 510,800 507,800 501,796 503,794 508,794 511,792 520,792 522,794 526,795 528,794 535,798 539,798 539,796 537,794 535,794 529,790 524,790 520,788 510,789 509,790 502,790 496,794 488,796 483,800 477,802 459,814 437,824 427,825 426,826 424,825 409,826 402,824 396,824 393,822 384,820 382,818 380,818 378,816 376,816 374,814 372,814 361,808 350,800 353,797 363,794 365,792 371,791 379,786 384,785 392,780 398,779 403,775 409,773 411,771 419,769 421,767 426,767 429,765 440,763 443,761 473,757 474,758 486,759 506,767 512,771 514,771 522,778 526,779 531,783 538,786 547,795 549,799 Z M 603,689 605,687 605,685 609,681 611,677 619,669 630,661 632,663 632,674 634,682 638,689 640,697 644,702 648,710 656,721 670,735 674,737 689,751 702,760 706,761 715,767 718,767 720,769 734,775 738,775 743,777 749,777 750,778 770,777 773,775 778,775 781,773 784,773 786,771 789,771 794,768 796,770 789,778 770,790 763,792 761,794 759,794 752,798 749,798 747,800 744,800 742,802 738,802 736,804 732,804 725,808 714,810 712,812 709,812 705,814 701,814 697,816 692,816 688,818 684,818 681,820 670,821 664,824 658,824 650,826 632,825 622,821 616,820 611,816 606,814 597,805 596,802 593,799 593,796 591,794 591,791 589,788 589,783 587,781 587,749 589,745 589,739 590,738 591,727 593,723 593,717 595,715 595,712 597,709 597,704 Z M 470,698 471,703 476,714 478,727 480,731 480,737 482,740 482,748 480,750 469,750 461,752 454,752 449,754 443,754 439,757 431,758 416,764 414,766 411,766 405,770 402,770 392,776 384,778 378,782 368,786 365,786 363,788 351,792 349,794 345,794 341,796 318,798 317,797 305,796 301,794 297,794 293,791 292,789 292,782 291,781 291,756 292,755 292,746 293,745 293,733 294,732 295,723 297,720 297,716 300,709 300,706 302,704 306,695 314,686 328,676 344,668 351,666 356,661 372,658 376,662 397,661 399,660 400,661 412,661 413,662 421,662 424,664 430,664 439,667 449,673 464,688 466,693 Z M 641,653 644,650 658,646 662,646 666,644 708,644 711,646 718,646 720,648 724,648 731,652 742,656 760,668 775,683 783,694 794,713 796,721 800,728 802,738 804,741 804,746 806,749 799,757 785,764 779,766 774,766 771,768 745,768 742,766 731,764 725,760 717,758 704,751 687,739 671,723 659,708 648,689 648,686 642,671 Z M 690,363 707,363 708,362 825,363 827,365 827,368 826,369 826,373 821,379 822,382 824,383 855,383 857,385 855,402 853,406 853,412 851,415 850,423 847,427 847,430 845,432 844,437 840,441 838,446 834,450 833,453 816,470 811,473 805,479 795,485 785,497 779,501 777,501 775,503 772,503 765,507 766,518 768,521 770,530 777,541 796,556 798,561 806,563 809,567 809,577 804,583 797,586 793,586 789,588 777,589 776,590 744,590 737,588 728,588 727,587 719,586 714,584 709,579 708,577 708,569 713,563 718,563 722,556 739,543 747,533 747,530 749,526 749,521 751,518 751,508 748,505 741,503 730,497 720,485 711,480 695,466 676,445 672,439 672,436 670,434 670,432 668,430 668,428 664,421 664,416 662,414 662,409 660,406 660,398 659,397 658,385 662,382 667,382 668,383 688,383 691,382 693,383 695,380 688,372 688,365 Z M 162,344 188,344 197,347 202,350 213,361 221,375 221,379 223,382 224,392 225,393 224,417 229,430 229,438 224,449 219,454 216,455 209,466 196,479 188,484 188,487 196,492 207,494 219,499 229,509 233,516 233,518 235,520 235,523 239,529 239,532 245,545 245,548 237,555 237,564 236,565 235,578 230,589 220,596 211,596 209,599 209,642 210,643 210,647 209,648 209,700 207,702 207,713 205,716 205,724 210,735 214,739 217,739 225,745 234,748 239,753 239,766 242,775 248,781 250,788 249,789 249,795 247,802 241,809 234,814 229,815 224,818 212,821 185,822 184,823 164,823 163,822 144,821 143,820 137,820 133,818 129,818 119,814 109,808 101,798 100,790 99,789 99,786 101,782 106,778 107,774 109,772 111,766 111,760 115,749 117,747 125,744 130,745 135,741 137,736 140,733 145,735 149,733 152,726 152,719 150,713 150,703 144,698 143,675 142,674 141,659 138,650 137,638 135,633 132,594 125,581 121,563 119,559 119,554 118,552 109,548 106,545 106,542 123,508 132,500 142,496 144,494 148,494 153,492 155,490 155,487 153,485 146,484 139,479 132,470 128,461 125,450 125,443 124,442 124,435 123,434 123,417 117,411 105,409 103,407 103,399 105,397 112,397 115,395 121,394 124,390 125,376 131,362 143,351 156,345 161,345 Z M 416,326 418,324 420,324 429,328 433,328 448,332 479,332 480,331 485,331 495,328 499,328 507,324 509,324 511,326 511,328 504,341 491,354 486,357 484,357 482,359 480,359 478,361 474,361 470,363 457,363 443,359 432,351 424,342 419,334 Z M 339,355 368,339 373,338 385,332 388,332 408,324 413,330 413,332 415,334 415,338 419,343 419,345 422,350 435,363 437,363 441,367 451,371 457,371 458,372 476,371 492,363 505,351 510,343 512,337 514,335 514,331 516,329 516,326 518,324 521,324 524,326 532,328 539,332 542,332 554,338 559,339 563,342 569,344 582,351 593,360 596,364 596,366 599,370 602,378 606,384 610,394 612,396 612,398 614,400 616,407 620,413 621,418 626,426 632,441 634,443 635,450 623,460 621,460 612,466 604,468 597,472 588,473 583,476 572,477 569,472 569,460 566,448 566,441 564,437 564,434 561,429 561,426 559,427 559,432 558,433 559,434 558,474 557,475 557,602 553,606 545,610 526,612 521,614 452,616 451,615 412,614 408,612 399,612 398,611 386,610 383,608 379,608 374,606 370,601 370,576 371,575 370,491 369,490 370,478 369,477 369,447 368,446 368,426 367,424 363,428 363,435 361,439 361,443 359,449 359,459 357,464 357,473 353,478 338,473 330,472 322,468 317,467 302,459 292,451 293,444 299,434 299,432 305,421 306,416 308,414 312,403 317,395 320,386 322,384 324,378 328,373 332,364 Z M 455,173 447,177 442,181 435,191 433,196 433,200 430,207 430,218 433,224 434,232 436,234 437,238 440,241 441,245 453,256 464,260 476,255 487,243 494,229 494,223 496,220 496,208 494,204 493,194 490,188 482,179 471,173 Z M 161,95 161,97 158,101 158,104 154,111 154,115 152,118 152,124 150,127 150,134 149,135 150,136 149,137 150,154 152,157 152,164 156,176 158,178 161,186 165,190 166,193 172,201 188,217 206,229 208,229 211,232 215,233 226,239 229,239 237,243 240,243 242,245 251,246 256,249 260,249 265,251 271,251 272,252 279,252 287,255 296,255 304,257 348,257 355,255 363,255 371,252 376,252 379,250 378,248 373,246 368,246 365,244 360,244 356,242 352,242 349,240 345,240 342,238 339,238 336,236 327,234 319,230 316,230 307,225 300,223 270,205 247,185 230,165 219,144 218,136 216,132 213,133 209,141 208,171 206,173 204,171 198,158 198,154 196,151 196,145 195,144 196,132 200,123 213,110 215,110 219,107 224,106 226,104 230,104 234,102 253,102 258,104 264,104 267,106 271,106 281,110 284,110 286,112 304,120 324,134 338,146 358,166 371,181 373,185 379,191 393,210 407,232 410,235 411,238 415,242 417,242 419,239 419,234 421,232 421,228 423,224 423,214 424,213 423,187 421,183 421,180 419,178 419,173 417,170 415,162 413,160 411,153 407,147 407,145 401,135 401,133 384,108 368,90 349,72 336,62 326,57 321,53 304,45 276,38 244,38 243,39 234,40 208,50 195,58 190,63 186,65 173,78 Z M 764,94 761,91 759,86 746,70 733,59 724,54 721,51 717,50 709,45 700,43 697,41 685,38 676,38 675,37 647,38 622,45 607,52 580,70 559,90 548,102 546,106 539,114 521,144 521,146 517,152 514,161 512,163 512,165 509,170 501,197 502,200 500,208 500,211 502,214 502,219 501,220 502,221 503,233 505,236 506,241 508,243 510,242 510,240 516,233 525,217 535,205 535,203 548,188 549,185 565,167 588,144 609,127 626,116 636,112 638,110 641,110 650,106 654,106 657,104 661,104 666,102 692,102 696,104 700,104 714,112 725,124 729,134 729,154 723,168 718,173 716,171 719,159 718,156 719,153 717,148 716,139 713,134 710,133 709,134 709,139 707,141 707,145 703,151 701,157 691,172 670,193 666,195 661,200 645,210 638,213 633,217 631,217 621,223 615,224 603,230 600,230 592,234 589,234 587,236 583,236 580,238 577,238 574,240 570,240 567,242 563,242 559,244 554,244 552,246 549,246 545,249 547,251 551,251 555,253 563,253 568,255 570,254 571,255 588,255 589,256 598,256 599,257 616,257 623,255 635,255 644,252 647,253 648,252 653,252 654,251 659,251 663,249 667,249 677,245 684,244 689,241 699,238 708,233 710,233 733,218 749,203 757,194 767,178 767,175 771,169 771,166 773,163 773,157 775,153 775,125 773,121 773,116 771,112 771,109 Z"/>
  </g>
</svg>